<?xml version="1.0" encoding="UTF-8" standalone="no"?><!DOCTYPE svg PUBLIC "-//W3C//DTD SVG 1.1//EN" "http://www.w3.org/Graphics/SVG/1.1/DTD/svg11.dtd"><!-- Generated by graphviz version 2.40.1 (20161225.0304)
 --><!-- Title: G Pages: 1 --><svg xmlns="http://www.w3.org/2000/svg" xmlns:xlink="http://www.w3.org/1999/xlink" width="339pt" height="927pt" viewBox="0.00 0.00 338.93 926.80">
<g id="graph0" class="graph" transform="scale(1 1) rotate(0) translate(4 922.8)">
<title>G</title>
<polygon fill="#ffffff" stroke="transparent" points="-4,4 -4,-922.8 334.9286,-922.8 334.9286,4 -4,4"/>
<!-- start -->
<g id="node1" class="node">
<title>start</title>
<ellipse fill="#d3d3d3" stroke="#000000" cx="120.9286" cy="-900.8" rx="27.8228" ry="18"/>
<text text-anchor="middle" x="120.9286" y="-896.6" font-family="Handlee" font-size="14.00" fill="#000000">start</text>
</g>
<!-- web -->
<g id="node2" class="node">
<title>web</title>
<polygon fill="#d3d3d3" stroke="#000000" points="166.4448,-845.8 75.4124,-845.8 75.4124,-809.8 166.4448,-809.8 166.4448,-845.8"/>
<text text-anchor="middle" x="120.9286" y="-823.6" font-family="Handlee" font-size="14.00" fill="#000000">Web browser</text>
</g>
<!-- start&#45;&gt;web -->
<g id="edge1" class="edge">
<title>start-&gt;web</title>
<path fill="none" stroke="#000000" d="M120.9286,-882.7551C120.9286,-874.6828 120.9286,-864.9764 120.9286,-855.9817"/>
<polygon fill="#000000" stroke="#000000" points="124.4287,-855.8903 120.9286,-845.8904 117.4287,-855.8904 124.4287,-855.8903"/>
</g>
<!-- URL -->
<g id="node3" class="node">
<title>URL</title>
<polygon fill="#d3d3d3" stroke="#000000" points="159.743,-772.8 82.1142,-772.8 82.1142,-736.8 159.743,-736.8 159.743,-772.8"/>
<text text-anchor="middle" x="120.9286" y="-750.6" font-family="Handlee" font-size="14.00" fill="#000000">Enter URL</text>
</g>
<!-- web&#45;&gt;URL -->
<g id="edge2" class="edge">
<title>web-&gt;URL</title>
<path fill="none" stroke="#000000" d="M120.9286,-809.7551C120.9286,-801.6828 120.9286,-791.9764 120.9286,-782.9817"/>
<polygon fill="#000000" stroke="#000000" points="124.4287,-782.8903 120.9286,-772.8904 117.4287,-782.8904 124.4287,-782.8903"/>
</g>
<!-- status -->
<g id="node4" class="node">
<title>status</title>
<polygon fill="#d3d3d3" stroke="#000000" points="162.7033,-699.8 79.1539,-699.8 79.1539,-663.8 162.7033,-663.8 162.7033,-699.8"/>
<text text-anchor="middle" x="120.9286" y="-677.6" font-family="Handlee" font-size="14.00" fill="#000000">Status Code</text>
</g>
<!-- URL&#45;&gt;status -->
<g id="edge3" class="edge">
<title>URL-&gt;status</title>
<path fill="none" stroke="#000000" d="M120.9286,-736.7551C120.9286,-728.6828 120.9286,-718.9764 120.9286,-709.9817"/>
<polygon fill="#000000" stroke="#000000" points="124.4287,-709.8903 120.9286,-699.8904 117.4287,-709.8904 124.4287,-709.8903"/>
</g>
<!-- DNS -->
<g id="node5" class="node">
<title>DNS</title>
<polygon fill="#d3d3d3" stroke="#000000" points="120.9286,-626.9002 .0714,-585.2 120.9286,-543.4998 241.7858,-585.2 120.9286,-626.9002"/>
<text text-anchor="middle" x="120.9286" y="-589.4" font-family="Handlee" font-size="14.00" fill="#000000">DNS Server </text>
<text text-anchor="middle" x="120.9286" y="-572.6" font-family="Handlee" font-size="14.00" fill="#000000">    search for cache</text>
</g>
<!-- status&#45;&gt;DNS -->
<g id="edge4" class="edge">
<title>status-&gt;DNS</title>
<path fill="none" stroke="#000000" d="M120.9286,-663.6303C120.9286,-656.0044 120.9286,-646.7101 120.9286,-637.223"/>
<polygon fill="#000000" stroke="#000000" points="124.4287,-636.9228 120.9286,-626.9228 117.4287,-636.9228 124.4287,-636.9228"/>
</g>
<!-- IP -->
<g id="node6" class="node">
<title>IP</title>
<polygon fill="#d3d3d3" stroke="#000000" points="185.4541,-490.8 56.4031,-490.8 56.4031,-454.8 185.4541,-454.8 185.4541,-490.8"/>
<text text-anchor="middle" x="120.9286" y="-468.6" font-family="Handlee" font-size="14.00" fill="#000000">IP Address obtained</text>
</g>
<!-- DNS&#45;&gt;IP -->
<g id="edge6" class="edge">
<title>DNS:s-&gt;IP</title>
<path fill="none" stroke="#000000" d="M120.9286,-543.6C120.9286,-529.5798 120.9286,-513.9979 120.9286,-501.0293"/>
<polygon fill="#000000" stroke="#000000" points="124.4287,-500.8419 120.9286,-490.8419 117.4287,-500.842 124.4287,-500.8419"/>
<text text-anchor="middle" x="130.2582" y="-513" font-family="Handlee" font-size="14.00" fill="#000000">yes</text>
</g>
<!-- q -->
<g id="node13" class="node">
<title>q</title>
<polygon fill="#d3d3d3" stroke="#000000" points="330.9286,-603.2 276.9286,-603.2 276.9286,-567.2 330.9286,-567.2 330.9286,-603.2"/>
<text text-anchor="middle" x="303.9286" y="-581" font-family="Handlee" font-size="14.00" fill="#000000">abc</text>
</g>
<!-- DNS&#45;&gt;q -->
<g id="edge5" class="edge">
<title>DNS-&gt;q</title>
<path fill="none" stroke="#000000" d="M241.9731,-585.2C250.7376,-585.2 259.097,-585.2 266.6786,-585.2"/>
<polygon fill="#000000" stroke="#000000" points="266.8402,-588.7001 276.8402,-585.2 266.8401,-581.7001 266.8402,-588.7001"/>
<text text-anchor="middle" x="259.3929" y="-592.4" font-family="Handlee" font-size="14.00" fill="#000000">No</text>
</g>
<!-- HTTP -->
<g id="node7" class="node">
<title>HTTP</title>
<polygon fill="#d3d3d3" stroke="#000000" points="209.7551,-417.6019 32.1021,-417.6019 32.1021,-376.3981 209.7551,-376.3981 209.7551,-417.6019"/>
<text text-anchor="middle" x="120.9286" y="-401.2" font-family="Handlee" font-size="14.00" fill="#000000">HTTP request to web server </text>
<text text-anchor="middle" x="120.9286" y="-384.4" font-family="Handlee" font-size="14.00" fill="#000000">    using TCP or IP</text>
</g>
<!-- IP&#45;&gt;HTTP -->
<g id="edge7" class="edge">
<title>IP-&gt;HTTP</title>
<path fill="none" stroke="#000000" d="M120.9286,-454.4509C120.9286,-446.515 120.9286,-437.0041 120.9286,-428.0258"/>
<polygon fill="#000000" stroke="#000000" points="124.4287,-427.8568 120.9286,-417.8568 117.4287,-427.8569 124.4287,-427.8568"/>
</g>
<!-- Host -->
<g id="node8" class="node">
<title>Host</title>
<polygon fill="#d3d3d3" stroke="#000000" points="238.306,-339.0019 3.5512,-339.0019 3.5512,-297.7981 238.306,-297.7981 238.306,-339.0019"/>
<text text-anchor="middle" x="120.9286" y="-322.6" font-family="Handlee" font-size="14.00" fill="#000000">Host computer receive </text>
<text text-anchor="middle" x="120.9286" y="-305.8" font-family="Handlee" font-size="14.00" fill="#000000">    HTTP request &amp; send back response</text>
</g>
<!-- HTTP&#45;&gt;Host -->
<g id="edge8" class="edge">
<title>HTTP-&gt;Host</title>
<path fill="none" stroke="#000000" d="M120.9286,-376.3488C120.9286,-368.1105 120.9286,-358.4489 120.9286,-349.402"/>
<polygon fill="#000000" stroke="#000000" points="124.4287,-349.1862 120.9286,-339.1862 117.4287,-349.1862 124.4287,-349.1862"/>
</g>
<!-- render -->
<g id="node9" class="node">
<title>render</title>
<polygon fill="#d3d3d3" stroke="#000000" points="211.6315,-260.6 30.2257,-260.6 30.2257,-224.6 211.6315,-224.6 211.6315,-260.6"/>
<text text-anchor="middle" x="120.9286" y="-238.4" font-family="Handlee" font-size="14.00" fill="#000000">Browser renders the response</text>
</g>
<!-- Host&#45;&gt;render -->
<g id="edge9" class="edge">
<title>Host-&gt;render</title>
<path fill="none" stroke="#000000" d="M120.9286,-297.6873C120.9286,-289.3698 120.9286,-279.6512 120.9286,-270.7124"/>
<polygon fill="#000000" stroke="#000000" points="124.4287,-270.7078 120.9286,-260.7078 117.4287,-270.7079 124.4287,-270.7078"/>
</g>
<!-- Packet -->
<g id="node10" class="node">
<title>Packet</title>
<polygon fill="#d3d3d3" stroke="#000000" points="208.8246,-187.4019 33.0326,-187.4019 33.0326,-146.1981 208.8246,-146.1981 208.8246,-187.4019"/>
<text text-anchor="middle" x="120.9286" y="-171" font-family="Handlee" font-size="14.00" fill="#000000">Each HTTP response inside </text>
<text text-anchor="middle" x="120.9286" y="-154.2" font-family="Handlee" font-size="14.00" fill="#000000">    have another IP Packet</text>
</g>
<!-- render&#45;&gt;Packet -->
<g id="edge10" class="edge">
<title>render-&gt;Packet</title>
<path fill="none" stroke="#000000" d="M120.9286,-224.2509C120.9286,-216.315 120.9286,-206.8041 120.9286,-197.8258"/>
<polygon fill="#000000" stroke="#000000" points="124.4287,-197.6568 120.9286,-187.6568 117.4287,-197.6569 124.4287,-197.6568"/>
</g>
<!-- display -->
<g id="node11" class="node">
<title>display</title>
<polygon fill="#d3d3d3" stroke="#000000" points="222.7261,-109 19.1311,-109 19.1311,-73 222.7261,-73 222.7261,-109"/>
<text text-anchor="middle" x="120.9286" y="-86.8" font-family="Handlee" font-size="14.00" fill="#000000">Browser displays HTML Content</text>
</g>
<!-- Packet&#45;&gt;display -->
<g id="edge11" class="edge">
<title>Packet-&gt;display</title>
<path fill="none" stroke="#000000" d="M120.9286,-146.0873C120.9286,-137.7698 120.9286,-128.0512 120.9286,-119.1124"/>
<polygon fill="#000000" stroke="#000000" points="124.4287,-119.1078 120.9286,-109.1078 117.4287,-119.1079 124.4287,-119.1078"/>
</g>
<!-- end -->
<g id="node12" class="node">
<title>end</title>
<ellipse fill="#d3d3d3" stroke="#000000" cx="120.9286" cy="-18" rx="27" ry="18"/>
<text text-anchor="middle" x="120.9286" y="-13.8" font-family="Handlee" font-size="14.00" fill="#000000">end</text>
</g>
<!-- display&#45;&gt;end -->
<g id="edge12" class="edge">
<title>display-&gt;end</title>
<path fill="none" stroke="#000000" d="M120.9286,-72.9551C120.9286,-64.8828 120.9286,-55.1764 120.9286,-46.1817"/>
<polygon fill="#000000" stroke="#000000" points="124.4287,-46.0903 120.9286,-36.0904 117.4287,-46.0904 124.4287,-46.0903"/>
</g>
</g>
</svg>